<svg xmlns="http://www.w3.org/2000/svg" viewBox="0 0 64 64">
  <rect width="64" height="64" rx="18" fill="#2775ca"/>
  <circle cx="32" cy="32" r="18" fill="none" stroke="#fff" stroke-width="4"/>
  <path d="M36.8 24.8a8.3 8.3 0 0 0-4.8-1.3c-3.4 0-5.8 1.8-5.8 4.5 0 2.4 1.8 3.7 5.1 4.9 2.4.8 3.5 1.4 3.5 2.6 0 1.2-1.1 2-3.2 2-2.1 0-4.2-.7-5.6-1.5l-1 3.8c1.3.7 3.4 1.4 5.7 1.6V45h3.2v-3.4c3.9-.7 6.2-3.2 6.2-6.1 0-3.3-1.7-5.1-5.6-6.4-2.8-1-3.9-1.6-3.9-2.7 0-1 .9-1.9 2.9-1.9 2.3 0 3.8.7 4.7 1.2z" fill="#fff"/>
  <path d="M18 24c-1.8 2.2-2.8 5-2.8 8s1 5.8 2.8 8" fill="none" stroke="#fff" stroke-width="3" stroke-linecap="round"/>
  <path d="M46 24c1.8 2.2 2.8 5 2.8 8s-1 5.8-2.8 8" fill="none" stroke="#fff" stroke-width="3" stroke-linecap="round"/>
</svg>
